<svg xmlns="http://www.w3.org/2000/svg" xmlns:xlink="http://www.w3.org/1999/xlink" version="1.1" preserveAspectRatio="xMidYMid meet" width="480" height="320" style=""><rect id="backgroundrect" width="100%" height="100%" x="0" y="0" fill="none" stroke="none"/><defs><path d="M480 0C480 0 480 0 480 0C480 192 480 298.67 480 320C480 320 480 320 480 320C192 320 32 320 0 320C0 320 0 320 0 320C0 128 0 21.33 0 0C0 0 0 0 0 0C288 0 448 0 480 0Z" id="i1bG4XhDDd"/><path d="M471.27 57.88L471.27 311.3C405.27 311.3 368.6 311.3 361.27 311.3C342.74 311.3 326.54 309.57 312.35 306.13C297.88 302.69 286.01 297.52 275.88 290.92C265.75 284.32 256.48 275.14 248.09 263.66C248.09 263.63 248.09 263.4 248.09 263.37C248.96 261.93 249.83 260.5 250.7 258.78C250.7 258.78 250.7 258.78 250.7 258.78L250.7 258.78L250.99 258.78L250.99 258.78L250.99 258.49L250.99 258.49L250.99 258.49L250.99 258.2L250.99 258.2L250.99 258.2L250.99 258.2L251.27 258.2L251.27 257.91L251.27 257.91L251.27 257.91L251.27 257.91L251.27 257.91L251.27 257.63L251.27 257.63L251.27 257.63L251.56 257.63L251.56 257.63L251.56 257.34L251.56 257.34L251.56 257.34L251.56 257.34L251.56 257.34L251.56 257.34L251.56 257.05L251.56 257.05L251.85 257.05L251.85 257.05L251.85 256.77L252.14 256.48L252.14 256.19L252.14 255.91L252.43 255.91L252.43 255.62L252.43 255.62L252.72 255.34L252.72 255.05L253.01 254.76L253.01 254.47L253.01 254.47L253.3 254.19L253.3 253.9L253.59 253.61L253.59 253.33L253.88 253.04L253.88 253.04L253.88 252.75L254.17 252.46L254.17 252.46L254.17 252.18L254.17 252.18L254.46 251.89L254.46 251.6L254.75 251.6L254.75 251.6L254.75 251.32L254.75 251.32L254.75 251.03L255.04 250.74L255.04 250.45L255.04 250.45L255.33 250.17L255.33 249.88L255.33 249.88L255.33 249.88L255.62 249.59L255.62 249.31L255.91 249.02L255.91 248.73L255.91 248.44L256.19 248.16L256.19 248.16L256.19 247.87L256.19 247.87L256.48 247.87L256.48 247.58L256.48 247.58L256.48 247.3L256.77 247.01L256.77 247.01L256.77 246.72L257.06 246.44L257.06 246.15L257.06 245.86L257.06 245.86L257.35 245.86L257.35 245.57L257.64 245.29L257.64 245L257.64 244.71L257.64 244.71L257.93 244.43L257.93 244.14L257.93 244.14L258.22 243.85L258.22 243.57L258.22 243.28L258.22 243.28L258.51 243.28L258.51 243.28L258.51 242.99L258.51 242.71L258.8 242.42L258.8 242.13L258.8 242.13L259.09 241.85L259.09 241.56L259.09 241.27L259.09 241.27C259.26 241.1 259.36 241 259.38 240.99C261.69 235.53 263.72 229.51 265.46 223.19C265.48 223.19 265.57 223.19 265.75 223.19L265.75 222.9L265.75 222.9L265.75 222.62L265.75 222.62L265.75 222.33L265.75 222.33L266.04 221.75L266.04 221.75L266.04 221.47L266.04 221.47L266.04 221.18C266.21 221.18 266.31 221.18 266.33 221.18C266.91 218.6 267.48 216.3 268.06 213.72C268.15 213.98 268.85 216.04 268.93 216.3C274.14 232.37 281.67 245 291.22 254.47C297.88 261.36 307.14 266.53 318.43 270.25C330.01 273.99 345.64 275.71 365.61 275.71C369.95 275.71 391.66 275.71 430.74 275.71L430.74 57.88L471.27 57.88" id="efTij5GMg"/><path d="M9.01 262.51L9.01 9.1C72.05 9.1 107.08 9.1 114.08 9.1C137.82 9.1 155.77 10.53 168.22 13.4C185.58 17.42 200.63 24.59 212.79 35.22C220.03 41.24 226.4 47.84 232.19 55.3C232.17 55.32 232.07 55.42 231.9 55.59L231.9 55.59L231.9 55.59L231.9 55.59L231.9 55.88L231.9 55.88L231.61 55.88L231.61 56.16L231.61 56.16L231.61 56.16L231.61 56.16L231.61 56.45L231.32 56.45L231.32 56.45L231.32 56.45L231.32 56.74L231.32 56.74L231.32 56.74L231.03 57.03L231.03 57.03L231.03 57.03L231.03 57.31L231.03 57.31L231.03 57.31L230.74 57.31L230.74 57.6L230.74 57.6L230.74 57.6L230.74 57.6L230.74 57.89L230.45 57.89L230.45 57.89L230.45 57.89L230.45 58.17L230.45 58.17L230.45 58.17L230.45 58.17L230.16 58.46L230.16 58.46L230.16 58.46L230.16 58.46L230.16 58.75L230.16 58.75L229.87 58.75L229.87 58.75L229.87 59.04L229.87 59.04L229.87 59.04L229.87 59.04L229.87 59.32L229.58 59.32L229.58 59.32L229.58 59.32L229.58 59.61L229.58 59.61L229.58 59.9L229.29 59.9L229.29 59.9L229.29 59.9L229.29 60.18L229.29 60.18L229.29 60.18L229.29 60.18L229 60.47L229 60.47L229 60.47L229 60.47L229 60.76L228.71 60.76L228.71 60.76L228.71 60.76L228.71 61.04L228.71 61.04L228.71 61.04L228.71 61.04L228.71 61.33L228.42 61.33L228.42 61.33L228.42 61.33L228.42 61.62L228.42 61.62C228.42 61.79 228.42 61.89 228.42 61.9C226.4 65.06 224.66 68.5 223.21 71.66C223.21 71.66 223.21 71.66 223.21 71.66L223.21 71.66L222.92 71.95L222.92 71.95L222.92 71.95L222.92 72.24L222.92 72.24L222.92 72.24L222.92 72.52L222.92 72.52L222.92 72.52L222.63 72.52L222.63 72.81L222.63 72.81L222.63 72.81L222.63 72.81L222.63 73.1L222.63 73.1L222.63 73.1L222.35 73.1L222.35 73.39L222.35 73.39L222.35 73.39L222.35 73.67L222.35 73.67L222.35 73.67L222.35 73.67L222.06 73.96L222.06 73.96L222.06 73.96L222.06 73.96L222.06 74.24L222.06 74.24L222.06 74.24L222.06 74.53L222.06 74.53L221.77 74.53L221.77 74.82L221.77 74.82L221.77 74.82L221.77 75.1L221.77 75.1L221.77 75.1L221.48 75.39L221.48 75.39L221.48 75.39L221.48 75.39L221.48 75.68L221.19 75.96L221.19 75.96L221.19 75.96L221.19 76.54C221.01 76.54 220.92 76.54 220.9 76.54C220.32 78.26 219.45 80.27 218.87 81.99C218.85 82.01 218.76 82.11 218.58 82.28L218.58 82.57L218.58 83.14L218.29 83.43L218.29 83.72L218 84L218 84.29L217.71 84.58L217.71 84.58L217.71 84.86L217.71 85.44L217.42 85.73L217.42 86.01L217.42 86.01L217.14 86.3L217.14 86.59L217.14 86.87L216.85 87.73L216.56 88.02L216.56 88.31L216.56 88.59L216.56 88.59L216.27 88.88L215.98 89.74L215.98 89.74L215.4 91.75L215.4 92.04L215.4 92.32L215.11 92.32L215.11 92.61L215.11 93.19L214.82 93.47L214.82 93.47L214.82 93.76L214.82 94.05L214.53 95.2L214.24 95.48L213.95 96.34L213.95 96.92L213.95 97.21L213.66 97.21L213.66 97.49L213.66 97.78L213.66 98.07L213.37 98.64L213.37 98.64C213.37 98.81 213.37 98.91 213.37 98.93C212.79 100.65 212.5 102.08 212.22 103.8C209.9 96.63 207 90.31 203.53 84.86C193.11 67.93 180.37 56.45 165.61 50.71C154.61 46.69 137.24 44.69 113.51 44.69C109.24 44.69 87.92 44.69 49.54 44.69L49.54 262.51L9.01 262.51" id="a2ZjHaHkBU"/><path d="M49.53 275.71C88.43 275.71 110.04 275.71 114.37 275.71C134.63 275.71 150.26 273.99 161.55 270.26C173.13 266.53 182.1 261.36 189.05 254.47C198.6 245 205.84 232.38 211.34 216.3C226.1 171.25 212.49 135.66 231.31 86.58C233.62 80.27 236.52 73.95 240 68.22C246.94 55.3 256.2 44.4 267.21 35.21C279.65 24.59 294.41 17.42 312.07 13.4C324.52 10.53 342.46 9.09 366.2 9.09C370.5 9.09 392.02 9.09 430.75 9.09L471.28 9.09L471.28 44.68L430.75 44.68C392.37 44.68 371.04 44.68 366.78 44.68C342.75 44.68 325.39 46.69 314.67 50.71C299.62 56.45 287.18 67.93 276.76 84.86C255.62 119.3 264.89 179.57 252.73 219.46C249.26 231.23 244.92 241.56 240 250.74C237.68 255.34 234.78 259.64 232.18 263.66C223.49 275.14 214.23 284.32 204.39 290.92C194.26 297.52 182.1 302.69 167.92 306.13C153.73 309.58 137.52 311.3 119 311.3C114.37 311.3 91.21 311.3 49.53 311.3L9 311.3L9 275.71L49.53 275.71" id="brnsCr7VE"/></defs><g class="currentLayer" style=""><title>Layer 1</title><g id="svg_1" class=""><g id="svg_2"><g id="svg_3"><use xlink:href="#i1bG4XhDDd" opacity="1" fill="#141434" fill-opacity="1" id="svg_4"/></g><g id="svg_5"><use xlink:href="#efTij5GMg" opacity="1" fill="#ffffff" fill-opacity="1" id="svg_6"/><g id="svg_7"><use xlink:href="#efTij5GMg" opacity="1" fill-opacity="0" stroke="#000000" stroke-width="1" stroke-opacity="0" id="svg_8"/></g></g><g id="svg_9"><use xlink:href="#a2ZjHaHkBU" opacity="1" fill="#ffffff" fill-opacity="1" id="svg_10"/><g id="svg_11"><use xlink:href="#a2ZjHaHkBU" opacity="1" fill-opacity="0" stroke="#000000" stroke-width="1" stroke-opacity="0" id="svg_12"/></g></g><g id="svg_13"><use xlink:href="#brnsCr7VE" opacity="1" fill="#ffffff" fill-opacity="1" id="svg_14"/><g id="svg_15"><use xlink:href="#brnsCr7VE" opacity="1" fill-opacity="0" stroke="#000000" stroke-width="1" stroke-opacity="0" id="svg_16"/></g></g></g></g></g></svg>