<?xml version="1.0" encoding="UTF-8" standalone="no"?>
<!DOCTYPE svg PUBLIC "-//W3C//DTD SVG 1.1//EN" "http://www.w3.org/Graphics/SVG/1.1/DTD/svg11.dtd">
<svg version="1.1" xmlns="http://www.w3.org/2000/svg" xmlns:xlink="http://www.w3.org/1999/xlink" preserveAspectRatio="xMidYMid meet" viewBox="0 0 1100 350" width="1100" height="350"><defs><path d="M1160.03 -334C1160.03 -334 1160.03 -334 1160.03 -334C1160.03 280.41 1160.03 621.76 1160.03 690.02C1160.03 690.02 1160.03 690.02 1160.03 690.02C392.01 690.02 -34.66 690.02 -120 690.02C-120 690.02 -120 690.02 -120 690.02C-120 75.61 -120 -265.73 -120 -334C-120 -334 -120 -334 -120 -334C648.02 -334 1074.7 -334 1160.03 -334Z" id="a5bSUGVE8i"></path><path d="M519.11 327.31L519.11 152.2C572.53 152.2 602.2 152.2 608.14 152.2C622.18 152.2 630.93 156.1 633.46 156.53C644.77 160.87 650.83 167.63 652.76 168.86C660.76 176.86 663.88 186.28 665.11 188.22C668 195.79 669.44 204.22 669.44 213.51L669.44 213.51C669.44 245.01 669.44 262.51 669.44 266.01C669.44 279.93 665.54 288.76 665.11 291.29C660.76 302.63 654 308.71 652.76 310.65C644.77 318.64 635.39 321.74 633.46 322.98C625.94 325.87 617.5 327.31 608.14 327.31L608.14 327.31L519.11 327.31ZM544.14 302.28C582.54 302.28 603.87 302.28 608.14 302.28C625.59 302.28 632.31 293.81 635 292.87C641.26 286.6 644.39 277.65 644.39 266.01L644.39 266.01C644.39 234.51 644.39 217.01 644.39 213.51C644.39 204.94 642.2 199.75 641.95 198.22C639.51 191.51 635.54 187.96 634.82 186.82C630.12 182.11 624.54 180.39 623.4 179.67C618.92 178.04 613.84 177.23 608.14 177.23L608.14 177.23L544.14 177.23L544.14 302.28ZM709.5 327.31L709.5 152.2L734.53 152.2L734.53 327.31L709.5 327.31ZM764.44 152.2L791.3 152.2L845.77 296.29L900.36 152.2L927.1 152.2L859.58 327.31L831.97 327.31L764.44 152.2ZM924.54 327.31L992.07 152.2L1017.1 152.2L1084.65 327.31L1059.6 327.31L1044.1 287.02L965.09 287.02L949.57 327.31L924.54 327.31ZM974.6 261.97L1034.45 261.97L1004.65 184.79L974.6 261.97Z" id="a1QxR7lLnN"></path><path d="M470.48 75.7L470.48 329.11C404.48 329.11 367.82 329.11 360.48 329.11C341.96 329.11 325.75 327.39 311.56 323.95C297.09 320.5 285.22 315.33 275.09 308.74C264.96 302.13 255.7 292.95 247.3 281.47C247.3 281.44 247.3 281.21 247.3 281.18C248.17 279.75 249.04 278.31 249.91 276.59C249.91 276.59 249.91 276.59 249.91 276.59L249.91 276.59L250.2 276.59L250.2 276.59L250.2 276.3L250.2 276.3L250.2 276.3L250.2 276.02L250.2 276.02L250.2 276.02L250.2 276.02L250.49 276.02L250.49 275.73L250.49 275.73L250.49 275.73L250.49 275.73L250.49 275.73L250.49 275.44L250.49 275.44L250.49 275.44L250.78 275.44L250.78 275.44L250.78 275.16L250.78 275.16L250.78 275.16L250.78 275.16L250.78 275.16L250.78 275.16L250.78 274.87L250.78 274.87L251.07 274.87L251.07 274.87L251.07 274.58L251.36 274.3L251.36 274.01L251.36 273.72L251.65 273.72L251.65 273.44L251.65 273.44L251.93 273.15L251.93 272.86L252.22 272.58L252.22 272.29L252.22 272.29L252.51 272L252.51 271.71L252.8 271.43L252.8 271.14L253.09 270.85L253.09 270.85L253.09 270.57L253.38 270.28L253.38 270.28L253.38 269.99L253.38 269.99L253.67 269.71L253.67 269.42L253.96 269.42L253.96 269.42L253.96 269.13L253.96 269.13L253.96 268.84L254.25 268.56L254.25 268.27L254.25 268.27L254.54 267.98L254.54 267.7L254.54 267.7L254.54 267.7L254.83 267.41L254.83 267.12L255.12 266.83L255.12 266.55L255.12 266.26L255.41 265.97L255.41 265.97L255.41 265.69L255.41 265.69L255.7 265.69L255.7 265.4L255.7 265.4L255.7 265.11L255.99 264.82L255.99 264.82L255.99 264.54L256.28 264.25L256.28 263.96L256.28 263.68L256.28 263.68L256.57 263.68L256.57 263.39L256.85 263.1L256.85 262.82L256.85 262.53L256.85 262.53L257.14 262.24L257.14 261.96L257.14 261.96L257.43 261.67L257.43 261.38L257.43 261.1L257.43 261.1L257.72 261.1L257.72 261.1L257.72 260.81L257.72 260.52L258.01 260.24L258.01 259.95L258.01 259.95L258.3 259.66L258.3 259.37L258.3 259.09L258.3 259.09C258.48 258.92 258.57 258.82 258.59 258.8C260.91 253.35 262.94 247.32 264.67 241C264.69 241 264.78 241 264.96 241L264.96 240.72L264.96 240.72L264.96 240.43L264.96 240.43L264.96 240.14L264.96 240.14L265.25 239.57L265.25 239.57L265.25 239.28L265.25 239.28L265.25 238.99C265.43 238.99 265.52 238.99 265.54 238.99C266.12 236.41 266.69 234.12 267.27 231.54C267.36 231.79 268.06 233.86 268.15 234.12C273.36 250.19 280.88 262.82 290.43 272.29C297.09 279.17 306.35 284.34 317.65 288.07C329.22 291.8 344.85 293.52 364.83 293.52C369.17 293.52 390.88 293.52 429.95 293.52L429.95 75.7L470.48 75.7" id="a3OuhQ7QIX"></path><path d="M8.22 280.33L8.22 26.91C71.27 26.91 106.29 26.91 113.3 26.91C137.03 26.91 154.98 28.35 167.43 31.22C184.79 35.24 199.85 42.41 212.01 53.03C219.24 59.05 225.61 65.66 231.4 73.12C231.38 73.14 231.28 73.23 231.11 73.41L231.11 73.41L231.11 73.41L231.11 73.41L231.11 73.69L231.11 73.69L230.82 73.69L230.82 73.98L230.82 73.98L230.82 73.98L230.82 73.98L230.82 74.27L230.53 74.27L230.53 74.27L230.53 74.27L230.53 74.55L230.53 74.55L230.53 74.55L230.24 74.84L230.24 74.84L230.24 74.84L230.24 75.13L230.24 75.13L230.24 75.13L229.95 75.13L229.95 75.41L229.95 75.41L229.95 75.41L229.95 75.41L229.95 75.7L229.66 75.7L229.66 75.7L229.66 75.7L229.66 75.99L229.66 75.99L229.66 75.99L229.66 75.99L229.37 76.28L229.37 76.28L229.37 76.28L229.37 76.28L229.37 76.56L229.37 76.56L229.08 76.56L229.08 76.56L229.08 76.85L229.08 76.85L229.08 76.85L229.08 76.85L229.08 77.14L228.79 77.14L228.79 77.14L228.79 77.14L228.79 77.42L228.79 77.42L228.79 77.71L228.5 77.71L228.5 77.71L228.5 77.71L228.5 78L228.5 78L228.5 78L228.5 78L228.21 78.29L228.21 78.29L228.21 78.29L228.21 78.29L228.21 78.57L227.93 78.57L227.93 78.57L227.93 78.57L227.93 78.86L227.93 78.86L227.93 78.86L227.93 78.86L227.93 79.15L227.64 79.15L227.64 79.15L227.64 79.15L227.64 79.43L227.64 79.43C227.64 79.6 227.64 79.7 227.64 79.72C225.61 82.87 223.87 86.32 222.43 89.48C222.43 89.48 222.43 89.48 222.43 89.48L222.43 89.48L222.14 89.77L222.14 89.77L222.14 89.77L222.14 90.05L222.14 90.05L222.14 90.05L222.14 90.34L222.14 90.34L222.14 90.34L221.85 90.34L221.85 90.63L221.85 90.63L221.85 90.63L221.85 90.63L221.85 90.91L221.85 90.91L221.85 90.91L221.56 90.91L221.56 91.2L221.56 91.2L221.56 91.2L221.56 91.49L221.56 91.49L221.56 91.49L221.56 91.49L221.27 91.77L221.27 91.77L221.27 91.77L221.27 91.77L221.27 92.06L221.27 92.06L221.27 92.06L221.27 92.35L221.27 92.35L220.98 92.35L220.98 92.63L220.98 92.63L220.98 92.63L220.98 92.92L220.98 92.92L220.98 92.92L220.69 93.21L220.69 93.21L220.69 93.21L220.69 93.21L220.69 93.49L220.4 93.78L220.4 93.78L220.4 93.78L220.4 94.35C220.23 94.35 220.13 94.35 220.11 94.35C219.53 96.08 218.66 98.09 218.08 99.81C218.07 99.83 217.97 99.92 217.8 100.1L217.8 100.38L217.8 100.96L217.51 101.24L217.51 101.53L217.22 101.82L217.22 102.11L216.93 102.39L216.93 102.39L216.93 102.68L216.93 103.25L216.64 103.54L216.64 103.83L216.64 103.83L216.35 104.12L216.35 104.4L216.35 104.69L216.06 105.55L215.77 105.84L215.77 106.12L215.77 106.41L215.77 106.41L215.48 106.69L215.19 107.56L215.19 107.56L214.61 109.57L214.61 109.85L214.61 110.14L214.32 110.14L214.32 110.43L214.32 111L214.03 111.29L214.03 111.29L214.03 111.58L214.03 111.86L213.74 113.01L213.45 113.3L213.16 114.16L213.16 114.73L213.16 115.02L212.88 115.02L212.88 115.31L212.88 115.59L212.88 115.88L212.58 116.46L212.58 116.46C212.58 116.63 212.58 116.72 212.58 116.74C212.01 118.46 211.71 119.9 211.43 121.62C209.11 114.45 206.21 108.13 202.74 102.68C192.32 85.75 179.58 74.27 164.82 68.52C153.82 64.51 136.46 62.5 112.72 62.5C108.45 62.5 87.13 62.5 48.75 62.5L48.75 280.33L8.22 280.33" id="cTNbNKRBF"></path><path d="M48.74 293.52C87.64 293.52 109.26 293.52 113.58 293.52C133.84 293.52 149.47 291.81 160.76 288.07C172.34 284.34 181.31 279.18 188.26 272.29C197.81 262.82 205.05 250.19 210.55 234.12C225.31 189.06 211.71 153.47 230.52 104.4C232.84 98.09 235.74 91.77 239.21 86.03C246.15 73.12 255.42 62.21 266.42 53.03C278.86 42.41 293.62 35.24 311.28 31.22C323.73 28.34 341.68 26.91 365.41 26.91C369.72 26.91 391.23 26.91 429.96 26.91L470.49 26.91L470.49 62.5L429.96 62.5C391.58 62.5 370.26 62.5 365.99 62.5C341.97 62.5 324.6 64.5 313.89 68.52C298.84 74.27 286.39 85.75 275.97 102.67C254.84 137.12 264.1 197.38 251.94 237.28C248.47 249.04 244.13 259.37 239.21 268.56C236.89 273.15 233.99 277.46 231.39 281.47C222.71 292.95 213.45 302.14 203.6 308.74C193.47 315.34 181.31 320.5 167.13 323.95C152.94 327.39 136.74 329.12 118.21 329.12C113.58 329.12 90.42 329.12 48.74 329.12L8.21 329.12L8.21 293.52L48.74 293.52" id="c81TGYJVn"></path></defs><g><g><g><use xlink:href="#a5bSUGVE8i" opacity="1" fill="#141434" fill-opacity="1"></use><g><use xlink:href="#a5bSUGVE8i" opacity="1" fill-opacity="0" stroke="#000000" stroke-width="1" stroke-opacity="0"></use></g></g><g><use xlink:href="#a1QxR7lLnN" opacity="1" fill="#ffffff" fill-opacity="1"></use><g><use xlink:href="#a1QxR7lLnN" opacity="1" fill-opacity="0" stroke="#b4b4bf" stroke-width="0" stroke-opacity="1"></use></g></g><g><use xlink:href="#a3OuhQ7QIX" opacity="1" fill="#ffffff" fill-opacity="1"></use><g><use xlink:href="#a3OuhQ7QIX" opacity="1" fill-opacity="0" stroke="#000000" stroke-width="1" stroke-opacity="0"></use></g></g><g><use xlink:href="#cTNbNKRBF" opacity="1" fill="#ffffff" fill-opacity="1"></use><g><use xlink:href="#cTNbNKRBF" opacity="1" fill-opacity="0" stroke="#000000" stroke-width="1" stroke-opacity="0"></use></g></g><g><use xlink:href="#c81TGYJVn" opacity="1" fill="#ffffff" fill-opacity="1"></use><g><use xlink:href="#c81TGYJVn" opacity="1" fill-opacity="0" stroke="#000000" stroke-width="1" stroke-opacity="0"></use></g></g></g></g></svg>